<svg width="24" height="24" viewBox="0 0 24 24" fill="none" xmlns="http://www.w3.org/2000/svg">
<path d="M9.70711 14.2929C9.31658 13.9024 8.68342 13.9024 8.29289 14.2929C7.90237 14.6834 7.90237 15.3166 8.29289 15.7071L9.70711 14.2929ZM11 17L10.2929 17.7071C10.6834 18.0976 11.3166 18.0976 11.7071 17.7071L11 17ZM15.7071 13.7071C16.0976 13.3166 16.0976 12.6834 15.7071 12.2929C15.3166 11.9024 14.6834 11.9024 14.2929 12.2929L15.7071 13.7071ZM18 8V20H20V8H18ZM17 21H7V23H17V21ZM6 20V8H4V20H6ZM7 7H9V5H7V7ZM15 7H17V5H15V7ZM7 21C6.44772 21 6 20.5523 6 20H4C4 21.6569 5.34315 23 7 23V21ZM18 20C18 20.5523 17.5523 21 17 21V23C18.6569 23 20 21.6569 20 20H18ZM20 8C20 6.34315 18.6569 5 17 5V7C17.5523 7 18 7.44772 18 8H20ZM6 8C6 7.44772 6.44772 7 7 7V5C5.34315 5 4 6.34315 4 8H6ZM8.29289 15.7071L10.2929 17.7071L11.7071 16.2929L9.70711 14.2929L8.29289 15.7071ZM11.7071 17.7071L15.7071 13.7071L14.2929 12.2929L10.2929 16.2929L11.7071 17.7071ZM11 5H13V3H11V5ZM13 7H11V9H13V7ZM11 7C10.4477 7 10 6.55228 10 6H8C8 7.65685 9.34315 9 11 9V7ZM14 6C14 6.55228 13.5523 7 13 7V9C14.6569 9 16 7.65685 16 6H14ZM13 5C13.5523 5 14 5.44772 14 6H16C16 4.34315 14.6569 3 13 3V5ZM11 3C9.34315 3 8 4.34315 8 6H10C10 5.44772 10.4477 5 11 5V3Z" fill="white"/>
</svg>
